<svg width="51" height="52" viewBox="0 0 51 52" fill="none" xmlns="http://www.w3.org/2000/svg">
<g opacity="0.25">
<path opacity="0.25" d="M25.5005 50.173C39.0315 50.173 50.0005 39.2039 50.0005 25.673C50.0005 12.142 39.0315 1.17297 25.5005 1.17297C11.9695 1.17297 1.00049 12.142 1.00049 25.673C1.00049 39.2039 11.9695 50.173 25.5005 50.173Z" stroke="#33A0FF" stroke-width="2"/>
</g>
<path fill-rule="evenodd" clip-rule="evenodd" d="M31.5542 28.628C32.0683 28.6273 32.5662 28.4482 32.963 28.1215C33.3598 27.7947 33.631 27.3404 33.7303 26.836L34.8453 21.263C34.9098 20.94 34.902 20.6067 34.8224 20.2871C34.7428 19.9675 34.5933 19.6695 34.3848 19.4146C34.1762 19.1597 33.9138 18.9541 33.6163 18.8127C33.3188 18.6714 32.9936 18.5977 32.6643 18.597H21.5643V17.482C21.564 17.1871 21.447 16.9044 21.2388 16.6956C21.0305 16.4868 20.7481 16.369 20.4533 16.368H18.2383C17.9485 16.3767 17.6734 16.4979 17.4715 16.7059C17.2696 16.914 17.1567 17.1925 17.1567 17.4825C17.1567 17.7724 17.2696 18.051 17.4715 18.259C17.6734 18.4671 17.9485 18.5883 18.2383 18.597H19.3533V29.742C18.912 29.74 18.48 29.8691 18.1122 30.1128C17.7443 30.3565 17.4571 30.7039 17.2868 31.111C17.1166 31.5181 17.071 31.9666 17.1559 32.3997C17.2407 32.8327 17.4522 33.2308 17.7636 33.5436C18.0749 33.8563 18.4721 34.0696 18.9047 34.1564C19.3374 34.2432 19.786 34.1997 20.1939 34.0312C20.6018 33.8628 20.9505 33.5772 21.1959 33.2104C21.4413 32.8436 21.5723 32.4123 21.5723 31.971H29.3383C29.3401 32.4097 29.4717 32.838 29.7168 33.2019C29.9618 33.5658 30.3091 33.8489 30.7149 34.0156C31.1207 34.1822 31.5668 34.2249 31.9968 34.1382C32.4269 34.0516 32.8216 33.8394 33.1312 33.5286C33.4408 33.2177 33.6513 32.8222 33.7363 32.3918C33.8212 31.9614 33.7767 31.5155 33.6084 31.1104C33.4401 30.7052 33.1556 30.359 32.7907 30.1155C32.4258 29.8719 31.997 29.742 31.5583 29.742H21.5713V28.628H31.5542ZM32.6693 20.828L31.5542 26.401H21.5673V20.828H32.6673H32.6693Z" fill="#33A0FF"/>
</svg>
