<svg width="25" height="25" viewBox="0 0 25 25" fill="none" xmlns="http://www.w3.org/2000/svg">
<path d="M9.22949 21.7395C9.54015 21.7395 9.79199 21.4877 9.79199 21.177C9.79199 20.8663 9.54015 20.6145 9.22949 20.6145C8.91883 20.6145 8.66699 20.8663 8.66699 21.177C8.66699 21.4877 8.91883 21.7395 9.22949 21.7395Z" fill="#22262A" stroke="#22262A" stroke-width="2" stroke-miterlimit="10" stroke-linecap="round" stroke-linejoin="round"/>
<path d="M17.1045 21.7395C17.4152 21.7395 17.667 21.4877 17.667 21.177C17.667 20.8663 17.4152 20.6145 17.1045 20.6145C16.7938 20.6145 16.542 20.8663 16.542 21.177C16.542 21.4877 16.7938 21.7395 17.1045 21.7395Z" fill="#22262A" stroke="#22262A" stroke-width="2" stroke-miterlimit="10" stroke-linecap="round" stroke-linejoin="round"/>
<path d="M3.04199 3.7395H5.29199L7.54199 17.2395H18.792L21.042 7.1145H6.41699" stroke="#22262A" stroke-width="2" stroke-linecap="round" stroke-linejoin="round"/>
</svg>
