<svg width="52" height="52" viewBox="0 0 52 52" fill="none" xmlns="http://www.w3.org/2000/svg">
<g opacity="0.25">
<path opacity="0.25" d="M26.0005 50.173C39.8076 50.173 51.0005 39.2039 51.0005 25.673C51.0005 12.142 39.8076 1.17297 26.0005 1.17297C12.1934 1.17297 1.00049 12.142 1.00049 25.673C1.00049 39.2039 12.1934 50.173 26.0005 50.173Z" stroke="#33A0FF" stroke-width="2"/>
</g>
<path fill-rule="evenodd" clip-rule="evenodd" d="M28.9366 19.711C29.5805 19.7117 30.2104 19.8982 30.7508 20.2481C31.2913 20.5981 31.7192 21.0966 31.9831 21.6838C32.2471 22.2711 32.336 22.922 32.2391 23.5585C32.1421 24.195 31.8635 24.79 31.4366 25.272C30.8236 25.963 25.5967 30.856 25.5967 30.856C25.5967 30.856 20.3587 25.963 19.7457 25.261C19.2045 24.6535 18.9067 23.8676 18.9097 23.054C18.9248 22.1773 19.2837 21.3415 19.9091 20.7269C20.5345 20.1122 21.3763 19.7678 22.2532 19.7678C23.13 19.7678 23.9718 20.1122 24.5972 20.7269C25.2225 21.3415 25.5815 22.1773 25.5967 23.054C25.5967 22.6149 25.6831 22.18 25.8512 21.7743C26.0192 21.3686 26.2656 21 26.5761 20.6895C26.8866 20.3789 27.2552 20.1326 27.6609 19.9645C28.0667 19.7965 28.5015 19.71 28.9407 19.71L28.9366 19.711ZM28.9407 17.481C27.7344 17.4789 26.5603 17.8704 25.5967 18.596C24.4927 17.7766 23.1248 17.3942 21.756 17.5223C20.3871 17.6504 19.1139 18.2799 18.1811 19.2899C17.2483 20.2998 16.7218 21.6189 16.7027 22.9936C16.6836 24.3683 17.1733 25.7015 18.0776 26.737C18.7036 27.455 22.8266 31.315 24.0776 32.481C24.4905 32.8672 25.0348 33.082 25.6001 33.082C26.1655 33.082 26.7097 32.8672 27.1226 32.481C28.3666 31.316 32.4726 27.466 33.1066 26.749C33.8179 25.9455 34.2822 24.9537 34.4435 23.8927C34.6048 22.8317 34.4564 21.7468 34.016 20.7681C33.5756 19.7895 32.862 18.9588 31.961 18.3759C31.06 17.7929 30.0098 17.4826 28.9366 17.482L28.9407 17.481Z" fill="#33A0FF"/>
</svg>
